<svg xmlns="http://www.w3.org/2000/svg" viewBox="0 0 386.1 447.36"><defs><style>.cls-1{fill:#231815;stroke:#fff;stroke-width:0.83px;}.cls-2,.cls-3{fill:#f7f4dd;}.cls-3{fill-rule:evenodd;}.cls-4{fill:#ebe3c7;}.cls-5{fill:#004314;}.cls-6{fill:#bb5600;}</style></defs><g id="レイヤー_2" data-name="レイヤー 2"><g id="レイヤー_1-2" data-name="レイヤー 1"><ellipse class="cls-1" cx="193.05" cy="223.68" rx="192.63" ry="223.27"/><path class="cls-2" d="M130.33,195.43H130V199h.37c3.44,0,5.07.34,6,1.26,1.28,1.28,1.25,4,1.24,8.9v17.75c0,9.11-5.19,14.54-13.85,14.54-8.49,0-13.55-5.43-13.55-14.54V210.11c0-5.43,0-8.41,1.37-9.78.94-1,2.57-1.3,6-1.3h.35v-3.6H92V199h.36c3.47,0,5.1.35,6,1.27,1.34,1.35,1.33,4.17,1.31,9.33v16.55c0,6.92,2.31,12.7,6.65,16.71a23.26,23.26,0,0,0,15.88,5.71c6.26,0,11.58-2,15.37-5.73,4-3.94,6.14-9.71,6.14-16.69V209.63c0-5.16,0-8,1.3-9.33.94-.92,2.58-1.27,6.05-1.27h.35v-3.6H130.33Z"/><path class="cls-2" d="M200.42,231.81h-.28l-.08.26-.72,2.76c-1.12,4.77-2.5,6.57-12.94,6.57h-3.33c-7.35,0-8.54-1.73-8.54-12.28V209.66c0-5.17,0-8,1.3-9.36.93-.92,2.57-1.27,6-1.27h.34v-3.6H156.08V199h.36c3.47,0,5.12.35,6,1.27,1.34,1.35,1.32,4.19,1.32,9.36v22.79c0,5.23,0,8.07-1.34,9.45-.93.92-2.62,1.3-6,1.3h-.36v3.56h46l0-.33,1-14.24,0-.38h-2.71Z"/><path class="cls-2" d="M251.45,231.81h-.27l-.07.26-.74,2.76c-1.1,4.77-2.51,6.57-12.93,6.57H234.1c-7.34,0-8.54-1.73-8.54-12.28V209.66c0-5.17,0-8,1.32-9.36.93-.92,2.57-1.27,6-1.27h.36v-3.6H207.13V199h.34c3.48,0,5.12.35,6.06,1.27,1.32,1.35,1.32,4.19,1.3,9.36v22.79c0,5.23,0,8.07-1.34,9.45-.93.92-2.61,1.3-6,1.3h-.34v3.56h46l0-.33,1-14.24,0-.38h-2.72Z"/><path class="cls-2" d="M286,180.1h-.35v3.77H286c4.1,0,6.09.41,6.61,1.39.78,1.47-1.47,4.89-4.6,9.63,0,0-9.26,13.55-11,16.31l-11.06-16.31c-3.3-5-5-8-4.17-9.48.57-1.07,2.52-1.54,6.33-1.54h.36V180.1H238.88v3.77h.37c6.65,0,8,2.18,13.42,10.58l4.84,7.2c-.24-.24,10.31,15.21,11.28,16.68v7.23c0,15.13,0,17.47-9.55,17.47h-.35v3.73h30.79V243h-.37c-9.52,0-9.52-2.34-9.52-17.47v-7.38l10.49-15.42,5.31-7.85c5.31-8.25,7.1-11,14.32-11h.35V180.1H286Z"/><path class="cls-2" d="M344.6,218l-7.86-4c-6.71-3.2-9.7-5.25-9.7-8.95s3.76-5.77,7.39-5.77c7,0,10.94,3.53,12,10.79l0,.31h3.65v-16.5h-3.33l-.07.27a8.82,8.82,0,0,1-1.57,3.56A18.19,18.19,0,0,0,334,194c-8.77,0-15.66,6-15.66,13.57,0,6.09,3.72,11.43,10.21,14.64l8.17,4c6.2,3,9,5.89,9,9.4,0,4-3.27,6.81-8,6.81-9.18,0-14.8-4.83-15.82-13.62l0-.3h-3.53v19.49h3.37l.05-.3a10.63,10.63,0,0,1,2-4.59,21.2,21.2,0,0,0,12.85,4.89c10.14,0,17.79-7,17.79-16.27C354.38,227.51,351.82,221.65,344.6,218Z"/><path class="cls-2" d="M314.13,196.29l-2.9.68-1.59-.69c2.27-3.62,3.12-4.88,4.06-7.55a27.66,27.66,0,0,0,1.35-7.94c2.52-.65,6-1.62,8.05-1.43l.82.58c-1.11,4.46-1.58,5.49-3.11,8.12S316.54,193.61,314.13,196.29Z"/><path class="cls-3" d="M85.36,246.72h.36V243h-.36C75.73,243,74,240.39,74,225.51v-46.2H81c13.07,0,15.44,1.11,17.19,8.31l0,.06,0,0,.48,1.62.11.18h3.83l-.16-.37-.83-16.08v-.33H35.53l0,.33-.83,16.08-.15.37h3.84l.09-.18.49-1.62,0,0v-.06c1.76-7.2,4.13-8.31,17.19-8.31h6.93v46.2c0,14.88-1.7,17.49-11.32,17.49h-.37v3.72H85.36Z"/><path class="cls-2" d="M47.59,141.68a195.54,195.54,0,0,1,31.28-53.3c30.39-36.62,70.95-56.8,114.18-56.8s83.78,20.18,114.18,56.8a195.79,195.79,0,0,1,31.28,53.3h4.42a199.91,199.91,0,0,0-32.55-55.91c-31.19-37.58-72.87-58.28-117.33-58.28S106.91,48.19,75.72,85.77a200.18,200.18,0,0,0-32.56,55.91Z"/><path class="cls-4" d="M193.05,415.78c-43.23,0-83.79-20.18-114.18-56.8a194.81,194.81,0,0,1-30.58-51.54H43.86a199.86,199.86,0,0,0,31.86,54.15c31.19,37.59,72.86,58.27,117.33,58.27s86.14-20.68,117.33-58.27a200.12,200.12,0,0,0,31.86-54.15h-4.43A195.58,195.58,0,0,1,307.24,359C276.83,395.6,236.28,415.78,193.05,415.78Z"/><path class="cls-2" d="M193.05.42C86.67.42.43,100.37.43,223.68S86.67,447,193.05,447,385.68,347,385.68,223.68,299.43.42,193.05.42ZM21.46,155.88C45.6,71.92,113.3,11.46,193.05,11.46S340.5,71.92,364.64,155.88ZM365,290.15c-23.8,84.65-91.79,145.74-171.95,145.74S44.89,374.8,21.09,290.15H79.16v-2.72H20.34c-.72-2.68-1.38-5.38-2-8.11H79.16v-2.73H17.7a248.59,248.59,0,0,1,3-118H365.38a245.06,245.06,0,0,1,8.69,65.08,246.87,246.87,0,0,1-5.67,52.91H306.3v2.73h61.48c-.64,2.73-1.3,5.43-2,8.11H306.3v2.72Z"/><path class="cls-5" d="M129.76,308.12v84.27a136.7,136.7,0,0,0,26,11V308.12Z"/><path class="cls-5" d="M105.34,141.68V72.41a168,168,0,0,0-26,27.72v41.55Z"/><path class="cls-5" d="M79.31,308.12v39.74a167.46,167.46,0,0,0,26,27.7V308.12Z"/><path class="cls-5" d="M306.92,141.68V99.62a167.15,167.15,0,0,0-25.83-27.34v69.4Z"/><path class="cls-5" d="M256.64,141.68V55.49a134.62,134.62,0,0,0-26-10.91v97.1Z"/><path class="cls-5" d="M193.11,141.68h13.1v-102a126.56,126.56,0,0,0-26,0v102Z"/><path class="cls-5" d="M155.78,141.68V44.63a135.51,135.51,0,0,0-26,11v86.07Z"/><path class="cls-5" d="M193.11,308.12H180.2V408.25a128.47,128.47,0,0,0,26,0V308.12Z"/><path class="cls-5" d="M281.09,308.12v67.59a167.63,167.63,0,0,0,25.83-27.35V308.12Z"/><path class="cls-5" d="M230.63,308.12V403.4a135.84,135.84,0,0,0,26-10.9V308.12Z"/><path class="cls-6" d="M56.55,308.12a190.33,190.33,0,0,0,22.76,39.74V308.12Z"/><path class="cls-6" d="M79.31,100.13A190.75,190.75,0,0,0,55.8,141.68H79.31Z"/><path class="cls-6" d="M129.76,141.68V55.61a149.11,149.11,0,0,0-24.42,16.8v69.27Z"/><path class="cls-6" d="M105.34,308.12v67.44a149.29,149.29,0,0,0,24.42,16.83V308.12Z"/><path class="cls-6" d="M180.2,141.68v-102a129,129,0,0,0-24.42,4.9v97.05Z"/><path class="cls-6" d="M155.78,308.12v95.23a129,129,0,0,0,24.42,4.9V308.12Z"/><path class="cls-6" d="M206.21,308.12V408.27a127.44,127.44,0,0,0,24.42-4.87V308.12Z"/><path class="cls-6" d="M230.63,141.68V44.58a129,129,0,0,0-24.42-4.87v102Z"/><path class="cls-6" d="M256.64,308.12V392.5a147.63,147.63,0,0,0,24.45-16.79V308.12Z"/><path class="cls-6" d="M281.09,141.68V72.28a148.24,148.24,0,0,0-24.45-16.79v86.19Z"/><path class="cls-6" d="M330.8,141.68a190.32,190.32,0,0,0-23.88-42.06v42.06Z"/><path class="cls-6" d="M306.92,348.36a190.3,190.3,0,0,0,23.14-40.24H306.92Z"/><path class="cls-2" d="M151.55,277.5c0,4.95-2.33,10.83-8.1,10.83s-8.1-5.88-8.1-10.83,2.36-10.78,8.1-10.78S151.55,272.56,151.55,277.5Zm5.5,0c0-7.1-6.11-12.95-13.6-12.95s-13.57,5.85-13.57,12.95,6.12,12.95,13.57,12.95S157.05,284.62,157.05,277.5Z"/><path class="cls-3" d="M106.84,288.33c-5.58,0-7.17-5.76-7.17-10.83s1.59-10.83,7.17-10.83c3.78,0,6.91,2.34,8.2,7h1.42v-8h-1.14a4.37,4.37,0,0,1-1.06,2.32,10.39,10.39,0,0,0-7.58-3.48,13,13,0,0,0,0,25.9,10.57,10.57,0,0,0,7.58-3.47,4.29,4.29,0,0,1,1.06,2.33h1.14V281h-1.35C113.86,285.81,110.68,288.33,106.84,288.33Z"/><path class="cls-3" d="M291.25,284l-.2.81c-.54,2.16-1,3-4.73,3h-3.65c-3.37,0-3.9-.55-3.9-4.64v-5.23H281c3.91,0,5-.08,5.12,3h1.17v-8.28h-1.17c-.05,3.15-1.15,3.14-5.12,3.14h-2.24v-8.34H285c3.74,0,4.14.66,4.72,2.82l.2.82h1.19l-.34-5.75H270.22v1.38c3.39,0,3.47.49,3.47,4.57v12.56c0,4.07-.08,4.69-3.47,4.69v1.25h21.89l.32-5.74Z"/><path class="cls-3" d="M257.58,284l-.21.81c-.52,2.16-1,3-4.72,3H249c-3.38,0-3.91-.55-3.91-4.64v-5.23h2.24c3.91,0,5-.08,5.1,3h1.18v-8.28h-1.18c0,3.15-1.14,3.14-5.1,3.14H245.1v-8.34h6.21c3.74,0,4.15.66,4.71,2.82l.22.82h1.18l-.33-5.75H236.55v1.38c3.39,0,3.46.49,3.46,4.57v12.56c0,4.07-.07,4.69-3.46,4.69v1.25h21.88l.33-5.74Z"/><path class="cls-2" d="M218,267.38c3.69,0,4.14.66,4.66,2.82l.21.82h1.23l-.37-5.75H202.55v1.36c3.38,0,3.46.51,3.46,4.59v12.56c0,4.08-.08,4.66-3.46,4.66v1.28h12v-1.28c-3.37,0-3.49-.58-3.49-4.66v-5.9h2.23c3.91,0,5-.07,5.12,3h1.17v-8.28h-1.17c-.05,3.15-1.15,3.19-5.12,3.19h-2.23v-8.39Z"/><path class="cls-2" d="M184.31,267.38c3.69,0,4.14.66,4.66,2.82l.21.82h1.22l-.35-5.75h-21.2v1.36c3.38,0,3.47.51,3.47,4.59v12.56c0,4.08-.09,4.66-3.47,4.66v1.28h12v-1.28c-3.37,0-3.5-.58-3.5-4.66v-5.9h2.24c3.91,0,5-.07,5.11,3h1.18v-8.28h-1.17c-.06,3.15-1.15,3.19-5.12,3.19h-2.24v-8.39Z"/></g></g></svg>